<svg xmlns="http://www.w3.org/2000/svg" viewBox="0 0 64 64">
  <defs>
    <radialGradient id="ocean" cx="35%" cy="28%" r="72%">
      <stop offset="0" stop-color="#54b8ff"/>
      <stop offset="1" stop-color="#064c91"/>
    </radialGradient>
    <filter id="glow" x="-50%" y="-50%" width="200%" height="200%">
      <feGaussianBlur stdDeviation="1.4" result="b"/>
      <feMerge><feMergeNode in="b"/><feMergeNode in="SourceGraphic"/></feMerge>
    </filter>
  </defs>
  <rect width="64" height="64" rx="10" fill="#020306"/>
  <circle cx="32" cy="29" r="21" fill="url(#ocean)" stroke="#96d6ff" stroke-width="2"/>
  <path d="M18 18l6 1 3 5-4 4-6-2-3 4m26-13l5 4-1 6-6 2-4-4 1-6m-7 17l5-3 7 3-1 7-7 5-6-4z" fill="#7bd58c" opacity=".95"/>
  <path d="M10 35h10l3-5h18l3 5h10a5 5 0 0 1 5 5v12a5 5 0 0 1-5 5H10a5 5 0 0 1-5-5V40a5 5 0 0 1 5-5z" fill="#030405" stroke="#2e97ff" stroke-width="3" filter="url(#glow)"/>
  <circle cx="32" cy="46" r="9" fill="#111b28" stroke="#f5fbff" stroke-width="2.5"/>
  <circle cx="32" cy="46" r="4" fill="#2e97ff"/>
  <circle cx="50" cy="40" r="2" fill="#ffe03f"/>
</svg>
